<svg width="123" height="41" viewBox="0 0 123 41" fill="none" xmlns="http://www.w3.org/2000/svg">
<path d="M12.1445 20.979L5.62785 27.6426V36.9932H0.5V0.880615H5.62785V21.0864L25.0709 0.880615H30.9466L15.6699 17.1098L32.0149 36.9932H26.0324L12.1445 20.979Z" fill="white"/>
<path d="M69.4054 34.0912L71.4352 30.222C73.7854 31.8342 77.4177 33.0165 80.9431 33.0165C85.5367 33.0165 87.3529 31.6192 87.3529 29.2547C87.3529 23.1285 70.1532 28.3949 70.1532 17.5397C70.1532 12.5957 74.5332 9.37134 81.4772 9.37134C85.0026 9.37134 89.0621 10.3386 91.4124 11.8433L89.2758 15.7125C86.8187 14.1004 84.148 13.563 81.4772 13.563C77.204 13.563 75.0674 15.1751 75.0674 17.3247C75.0674 23.7734 92.267 18.507 92.267 29.1473C92.267 34.0912 87.7802 37.2081 80.5157 37.2081C76.1357 37.3156 71.6488 35.9184 69.4054 34.0912Z" fill="white"/>
<path d="M122.5 20.4414V36.993H117.799V33.3387C116.197 35.8107 113.099 37.2079 108.826 37.2079C102.63 37.2079 98.7837 33.8761 98.7837 29.1471C98.7837 24.7405 101.561 21.1937 109.68 21.1937H117.479V20.2264C117.479 16.0348 115.022 13.6703 110.215 13.6703C107.01 13.6703 103.698 14.8525 101.561 16.5722L99.5315 12.8104C102.309 10.5534 106.369 9.26367 110.749 9.26367C118.334 9.37115 122.5 13.0254 122.5 20.4414ZM117.586 28.6097V24.7405H110.001C105.087 24.7405 103.698 26.6751 103.698 28.9321C103.698 31.6191 105.941 33.3387 109.68 33.3387C113.419 33.4462 116.411 31.834 117.586 28.6097Z" fill="white"/>
<path d="M53.5946 29.7922V37.1007L56.6927 35.2736V27.9651L53.5946 29.7922Z" fill="white"/>
<path d="M62.141 20.8715L49.4282 13.4555L42.3774 9.37134L35.4335 21.5163L35.5403 32.909L48.1463 40.325L49.4282 39.5726V28.8248L55.0902 18.8294L60.859 22.1612V32.909L62.141 32.1566V20.8715Z" fill="white"/>
</svg>
